<svg xmlns="http://www.w3.org/2000/svg" width="400" height="400" viewBox="0 0 400 400" style="background-color: #5e666e">
  <g xmlns="http://www.w3.org/2000/svg" stroke="#ce8e3b" stroke-width="1.2220519934100011" stroke-linecap="butt" opacity="0.589213130048187">
      <path d="M202 27 H318 "></path>
  </g>
<g xmlns="http://www.w3.org/2000/svg" stroke="#d1cbc7" stroke-width="0.6212811212093698" stroke-linecap="butt" opacity="0.7061949757752912">
      <path d="M46 241 H68 "></path>
  </g>
<g xmlns="http://www.w3.org/2000/svg" stroke="#000000" stroke-width="0.9660013100553828" stroke-linecap="butt" opacity="0.4672294745261012">
      <path d="M126 194 H307  M34 180 H323 "></path>
  </g>
<g xmlns="http://www.w3.org/2000/svg" stroke="#ce8e3b" stroke-width="0.14860495621309677" stroke-linecap="butt" opacity="0.6867597502550347">
      <path d="M333 241 H367 "></path>
  </g>
<g xmlns="http://www.w3.org/2000/svg" stroke="#d1d9ff" stroke-width="1.4860868975873498" stroke-linecap="butt" opacity="0.6674441044252533">
      <path d="M115 396 H258 "></path>
  </g>
<g xmlns="http://www.w3.org/2000/svg" stroke="#d1d9ff" stroke-width="1.5258682866064825" stroke-linecap="butt" opacity="0.5985873205659111">
      <path d="M27 60 H68 "></path>
  </g>
<g xmlns="http://www.w3.org/2000/svg" stroke="#ce8e3b" stroke-width="1.7391075562099982" stroke-linecap="butt" opacity="0.7287971223530254">
      <path d="M100 189 H141 "></path>
  </g>
<g xmlns="http://www.w3.org/2000/svg" stroke="#ce8e3b" stroke-width="0.9291521672806432" stroke-linecap="butt" opacity="0.3501877508601951">
      <path d="M68 180 H349  M70 380 H229 "></path>
  </g>
<g xmlns="http://www.w3.org/2000/svg" stroke="#d1d9ff" stroke-width="1.2161456596411102" stroke-linecap="butt" opacity="0.5507936064469212">
      <path d="M49 70 H392 "></path>
  </g>
<g xmlns="http://www.w3.org/2000/svg" stroke="#d1cbc7" stroke-width="1.8280138169062203" stroke-linecap="butt" opacity="0.26060942632977535">
      <path d="M52 193 H364  M83 173 H119  M51 267 H157 "></path>
  </g>
<g xmlns="http://www.w3.org/2000/svg" stroke="#000000" stroke-width="1.3222777127321619" stroke-linecap="butt" opacity="0.6375224911228298">
      <path d="M75 112 H353 "></path>
  </g>
<g xmlns="http://www.w3.org/2000/svg" stroke="#ce8e3b" stroke-width="1.1023794364525312" stroke-linecap="butt" opacity="0.9051252738419598">
      <path d="M105 177 H209 "></path>
  </g>
<g xmlns="http://www.w3.org/2000/svg" stroke="#d1cbc7" stroke-width="0.2893779047949021" stroke-linecap="butt" opacity="0.3972982796862287">
      <path d="M0 129 V82  M309 129 V400  M0 261 V27  M329 261 V400 "></path>
  </g>
<g xmlns="http://www.w3.org/2000/svg" stroke="#d1cbc7" stroke-width="0.9920474772536814" stroke-linecap="butt" opacity="0.8566202559949428">
      <path d="M0 86 V45  M383 86 V400 "></path>
  </g>
<g xmlns="http://www.w3.org/2000/svg" stroke="#d1d9ff" stroke-width="0.22344828128450306" stroke-linecap="butt" opacity="0.464183647558045">
      <path d="M0 340 V73  M353 340 V400  M0 369 V15  M329 369 V400 "></path>
  </g>
<g xmlns="http://www.w3.org/2000/svg" stroke="#d1cbc7" stroke-width="0.4759528527286258" stroke-linecap="butt" opacity="0.44606013941808825">
      <path d="M0 264 V17  M353 264 V400  M0 114 V24  M370 114 V400 "></path>
  </g>
<g xmlns="http://www.w3.org/2000/svg" stroke="#d1d9ff" stroke-width="0.8547094869161616" stroke-linecap="butt" opacity="0.5626426455703752">
      <path d="M0 267 V79  M324 267 V400 "></path>
  </g>
<g xmlns="http://www.w3.org/2000/svg" stroke="#d1cbc7" stroke-width="0.5306433093419208" stroke-linecap="butt" opacity="0.7062777408502734">
      <path d="M0 351 V7  M395 351 V400 "></path>
  </g>
<g xmlns="http://www.w3.org/2000/svg" stroke="#d1cbc7" stroke-width="0.7624378937668722" stroke-linecap="butt" opacity="0.519508542562253">
      <path d="M293 58 V362 "></path>
  </g>
<g xmlns="http://www.w3.org/2000/svg" stroke="#d1d9ff" stroke-width="0.21393691686292798" stroke-linecap="butt" opacity="0.6711033555159662">
      <path d="M38 149 V398 "></path>
  </g>
<g xmlns="http://www.w3.org/2000/svg" stroke="#ce8e3b" stroke-width="0.1641097302674363" stroke-linecap="butt" opacity="0.6915758474181818">
      <path d="M75 79 V268 "></path>
  </g>
<g xmlns="http://www.w3.org/2000/svg" stroke="#d1d9ff" stroke-width="0.32768994818939245" stroke-linecap="butt" opacity="0.6651608117239315">
      <path d="M26 172 V130 "></path>
  </g>
<g xmlns="http://www.w3.org/2000/svg" stroke="#000000" stroke-width="0.18187864977243495" stroke-linecap="butt" opacity="0.7887071519294784">
      <path d="M122 316 V255 "></path>
  </g>
<g xmlns="http://www.w3.org/2000/svg" stroke="#d1cbc7" stroke-width="0.498219975741116" stroke-linecap="butt" opacity="0.44953667947880466">
      <path d="M163 51 V290  M107 142 V168 "></path>
  </g>
<g xmlns="http://www.w3.org/2000/svg" stroke="#d1cbc7" stroke-width="0.8908636004052328" stroke-linecap="butt" opacity="0.39725837136108066">
      <path d="M118 78 V305  M124 358 V163 "></path>
  </g>
<g xmlns="http://www.w3.org/2000/svg" stroke="#000000" stroke-width="0.8627454869836393" stroke-linecap="butt" opacity="0.6945754785128927">
      <path d="M144 207 V245 "></path>
  </g>
<g xmlns="http://www.w3.org/2000/svg" stroke="#d1d9ff" stroke-width="0.1" stroke-linecap="butt" opacity="0.539468109454878">
      <path d="M216 49 V331 "></path>
  </g>
<g xmlns="http://www.w3.org/2000/svg" stroke="#ce8e3b" stroke-width="0.1" stroke-linecap="butt" opacity="0.33823435356028037">
      <path d="M347 211 V348  M35 339 V37 "></path>
  </g>
<g xmlns="http://www.w3.org/2000/svg" stroke="#d1d9ff" stroke-width="0.8892500986224976" stroke-linecap="butt" opacity="0.4399996562257696">
      <path d="M251 354 V281  M43 359 V71 "></path>
  </g>
<g xmlns="http://www.w3.org/2000/svg" stroke="#d1cbc7" stroke-width="0.760426603321937" stroke-linecap="butt" opacity="0.39720507888765916">
      <path d="M319 349 V375  M262 43 V345 "></path>
  </g>
</svg>